<svg width="18" height="14" viewBox="0 0 18 14" fill="none" xmlns="http://www.w3.org/2000/svg">
<path d="M11.6043 8.78557C11.4622 8.78557 11.3259 8.84202 11.2255 8.94248C11.125 9.04295 11.0686 9.17921 11.0686 9.32129C11.0686 9.46337 11.125 9.59963 11.2255 9.7001C11.3259 9.80056 11.4622 9.857 11.6043 9.857H14.1043C14.2464 9.857 14.3826 9.80056 14.4831 9.7001C14.5836 9.59963 14.64 9.46337 14.64 9.32129C14.64 9.17921 14.5836 9.04295 14.4831 8.94248C14.3826 8.84202 14.2464 8.78557 14.1043 8.78557H11.6043ZM0 3.24986C0 2.53946 0.282206 1.85815 0.784535 1.35582C1.28686 0.853495 1.96817 0.571289 2.67857 0.571289H14.4614C15.1718 0.571289 15.8531 0.853495 16.3555 1.35582C16.8578 1.85815 17.14 2.53946 17.14 3.24986V10.7499C17.14 11.4603 16.8578 12.1416 16.3555 12.6439C15.8531 13.1462 15.1718 13.4284 14.4614 13.4284H2.67929C1.96888 13.4284 1.28758 13.1462 0.78525 12.6439C0.28292 12.1416 0.000714404 11.4603 0.000714404 10.7499V3.24986H0ZM2.67857 1.64272C2.25233 1.64272 1.84355 1.81204 1.54215 2.11344C1.24075 2.41484 1.07143 2.82362 1.07143 3.24986V3.78557H16.0686V3.24986C16.0686 2.82362 15.8992 2.41484 15.5978 2.11344C15.2965 1.81204 14.8877 1.64272 14.4614 1.64272H2.67929H2.67857ZM1.07143 10.7499C1.07143 11.1761 1.24075 11.5849 1.54215 11.8863C1.84355 12.1877 2.25233 12.357 2.67857 12.357H14.4614C14.8877 12.357 15.2965 12.1877 15.5978 11.8863C15.8992 11.5849 16.0686 11.1761 16.0686 10.7499V4.857H1.07214V10.7499H1.07143Z" fill="#888888"/>
</svg>
