<svg width="30" height="24" viewBox="0 0 30 24" fill="none" xmlns="http://www.w3.org/2000/svg">
<path d="M2 10.0001H5V18.0001H3C2.73478 18.0001 2.48043 18.1055 2.29289 18.293C2.10536 18.4806 2 18.7349 2 19.0001C2 19.2654 2.10536 19.5197 2.29289 19.7072C2.48043 19.8948 2.73478 20.0001 3 20.0001H27C27.2652 20.0001 27.5196 19.8948 27.7071 19.7072C27.8946 19.5197 28 19.2654 28 19.0001C28 18.7349 27.8946 18.4806 27.7071 18.293C27.5196 18.1055 27.2652 18.0001 27 18.0001H25V10.0001H28C28.2173 9.99976 28.4286 9.92859 28.6018 9.79742C28.7751 9.66625 28.9009 9.48221 28.9602 9.27315C29.0196 9.06409 29.0092 8.8414 28.9306 8.63877C28.8521 8.43615 28.7097 8.26462 28.525 8.15014L15.525 0.150144C15.3677 0.0514015 15.1857 -0.000976562 15 -0.000976562C14.8143 -0.000976562 14.6323 0.0514015 14.475 0.150144L1.475 8.15014C1.29029 8.26462 1.14789 8.43615 1.06936 8.63877C0.990828 8.8414 0.98044 9.06409 1.03977 9.27315C1.09909 9.48221 1.22491 9.66625 1.39816 9.79742C1.57142 9.92859 1.78269 9.99976 2 10.0001ZM7 10.0001H11V18.0001H7V10.0001ZM17 10.0001V18.0001H13V10.0001H17ZM23 18.0001H19V10.0001H23V18.0001ZM15 2.17514L24.4625 8.00014H5.5375L15 2.17514ZM30 23.0001C30 23.2654 29.8946 23.5197 29.7071 23.7072C29.5196 23.8948 29.2652 24.0001 29 24.0001H1C0.734784 24.0001 0.48043 23.8948 0.292893 23.7072C0.105357 23.5197 0 23.2654 0 23.0001C0 22.7349 0.105357 22.4806 0.292893 22.293C0.48043 22.1055 0.734784 22.0001 1 22.0001H29C29.2652 22.0001 29.5196 22.1055 29.7071 22.293C29.8946 22.4806 30 22.7349 30 23.0001Z" fill="#C867E2"/>
</svg>
