<svg width="32" height="32" viewBox="0 0 32 32" fill="none" xmlns="http://www.w3.org/2000/svg">
<path d="M9.33329 19.9998H13.3333C13.6869 19.9998 14.0261 19.8594 14.2761 19.6093C14.5261 19.3593 14.6666 19.0201 14.6666 18.6665C14.6666 18.3129 14.5261 17.9737 14.2761 17.7237C14.0261 17.4736 13.6869 17.3332 13.3333 17.3332H9.33329C8.97967 17.3332 8.64053 17.4736 8.39048 17.7237C8.14044 17.9737 7.99996 18.3129 7.99996 18.6665C7.99996 19.0201 8.14044 19.3593 8.39048 19.6093C8.64053 19.8594 8.97967 19.9998 9.33329 19.9998ZM25.3333 6.6665H6.66663C5.60576 6.6665 4.58834 7.08793 3.8382 7.83808C3.08805 8.58822 2.66663 9.60564 2.66663 10.6665V22.6665C2.66663 23.7274 3.08805 24.7448 3.8382 25.4949C4.58834 26.2451 5.60576 26.6665 6.66663 26.6665H25.3333C26.3942 26.6665 27.4116 26.2451 28.1617 25.4949C28.9119 24.7448 29.3333 23.7274 29.3333 22.6665V10.6665C29.3333 9.60564 28.9119 8.58822 28.1617 7.83808C27.4116 7.08793 26.3942 6.6665 25.3333 6.6665ZM26.6666 22.6665C26.6666 23.0201 26.5261 23.3593 26.2761 23.6093C26.0261 23.8594 25.6869 23.9998 25.3333 23.9998H6.66663C6.313 23.9998 5.97387 23.8594 5.72382 23.6093C5.47377 23.3593 5.33329 23.0201 5.33329 22.6665V14.6665H26.6666V22.6665ZM26.6666 11.9998H5.33329V10.6665C5.33329 10.3129 5.47377 9.97374 5.72382 9.7237C5.97387 9.47365 6.313 9.33317 6.66663 9.33317H25.3333C25.6869 9.33317 26.0261 9.47365 26.2761 9.7237C26.5261 9.97374 26.6666 10.3129 26.6666 10.6665V11.9998Z" fill="#C867E2"/>
</svg>
