<svg width="24" height="24" viewBox="0 0 24 24" fill="none" xmlns="http://www.w3.org/2000/svg">
<g clip-path="url(#clip0_439_2054)">
<path d="M12.2466 7.44678C11.7071 7.44741 11.172 7.54449 10.6666 7.73344L16.5333 13.6001C16.7247 13.0885 16.8219 12.5464 16.82 12.0001C16.8147 10.7907 16.3305 9.63254 15.4734 8.7792C14.6163 7.92585 13.4561 7.44677 12.2466 7.44678Z" fill="#353535"/>
<path d="M22.8599 11.6867C20.6133 7.53335 16.6733 5.02002 12.3133 5.02002C11.1262 5.02281 9.94705 5.21408 8.81995 5.58669L9.89328 6.66669C10.6838 6.46237 11.4967 6.35712 12.3133 6.35335C16.0666 6.35335 19.4799 8.44669 21.5133 11.9734C20.7674 13.2818 19.7786 14.4357 18.5999 15.3734L19.5466 16.32C20.9107 15.2196 22.0435 13.8601 22.8799 12.32L23.0533 12L22.8599 11.6867Z" fill="#353535"/>
<path d="M3.24667 3.8532L6.22 6.82653C4.34062 8.0366 2.8046 9.71038 1.76 11.6865L1.58667 11.9999L1.76 12.3199C4.00667 16.4732 7.94667 18.9865 12.3067 18.9865C14.0084 18.9862 15.6881 18.601 17.22 17.8599L20.5533 21.1932L21.72 20.1932L4.38667 2.85986L3.24667 3.8532ZM8.78 9.38653C8.15629 10.2661 7.86395 11.3381 7.95475 12.4125C8.04554 13.487 8.51361 14.4947 9.27607 15.2571C10.0385 16.0196 11.0462 16.4877 12.1207 16.5785C13.1951 16.6692 14.2671 16.3769 15.1467 15.7532L16.2133 16.8199C14.9785 17.3477 13.6496 17.6198 12.3067 17.6199C8.55334 17.6199 5.14 15.5265 3.10667 11.9999C4.08247 10.272 5.48782 8.82533 7.18667 7.79986L8.78 9.38653Z" fill="#353535"/>
</g>
<defs>
<clipPath id="clip0_439_2054">
<rect width="24" height="24" fill="white"/>
</clipPath>
</defs>
</svg>
