<svg width="100" height="100" viewBox="0 0 100 100" fill="none" xmlns="http://www.w3.org/2000/svg">
<circle cx="50" cy="50" r="49.5" fill="white" stroke="#C867E2"/>
<path d="M50 31V38H57.4375C58.9085 38 60.3465 37.5895 61.5696 36.8203C62.7926 36.0511 63.7459 34.9579 64.3089 33.6788C64.8718 32.3997 65.0191 30.9922 64.7321 29.6344C64.4451 28.2765 63.7368 27.0292 62.6966 26.0503C61.6565 25.0713 60.3312 24.4046 58.8885 24.1345C57.4458 23.8644 55.9503 24.003 54.5913 24.5328C53.2323 25.0627 52.0707 25.9599 51.2535 27.111C50.4362 28.2622 50 29.6155 50 31V31ZM50 31V38H42.5625C41.0915 38 39.6535 37.5895 38.4304 36.8203C37.2074 36.0511 36.2541 34.9579 35.6911 33.6788C35.1282 32.3997 34.9809 30.9922 35.2679 29.6344C35.5549 28.2765 36.2632 27.0292 37.3034 26.0503C38.3436 25.0713 39.6688 24.4046 41.1115 24.1345C42.5543 23.8644 44.0497 24.003 45.4087 24.5328C46.7677 25.0627 47.9293 25.9599 48.7466 27.111C49.5638 28.2622 50 29.6155 50 31V31Z" stroke="#C867E2" stroke-width="1.5" stroke-miterlimit="10" stroke-linecap="round"/>
<path d="M71.25 38H28.75C26.4028 38 24.5 39.7909 24.5 42V48C24.5 50.2091 26.4028 52 28.75 52H71.25C73.5972 52 75.5 50.2091 75.5 48V42C75.5 39.7909 73.5972 38 71.25 38Z" stroke="#C867E2" stroke-width="1.5" stroke-linecap="round" stroke-linejoin="round"/>
<path d="M71.25 52V70C71.25 71.5913 70.5784 73.1174 69.3828 74.2426C68.1873 75.3679 66.5658 76 64.875 76H35.125C33.4342 76 31.8127 75.3679 30.6172 74.2426C29.4217 73.1174 28.75 71.5913 28.75 70V52M50 38V76" stroke="#C867E2" stroke-width="1.5" stroke-linecap="round" stroke-linejoin="round"/>
</svg>
