<svg width="16" height="16" viewBox="0 0 16 16" fill="none" xmlns="http://www.w3.org/2000/svg">
<path d="M13.8866 5.34018L9.51989 1.84684C8.66656 1.16684 7.33323 1.16018 6.48656 1.84017L2.11989 5.34018C1.49323 5.84018 1.11323 6.84017 1.24656 7.62684L2.08656 12.6535C2.27989 13.7802 3.32656 14.6668 4.46656 14.6668H11.5332C12.6599 14.6668 13.7266 13.7602 13.9199 12.6468L14.7599 7.62017C14.8799 6.84017 14.4999 5.84018 13.8866 5.34018ZM8.49989 12.0002C8.49989 12.2735 8.27323 12.5002 7.99989 12.5002C7.72656 12.5002 7.49989 12.2735 7.49989 12.0002V10.0002C7.49989 9.72684 7.72656 9.50017 7.99989 9.50017C8.27323 9.50017 8.49989 9.72684 8.49989 10.0002V12.0002Z" fill="#C867E2"/>
</svg>
