<svg width="100" height="100" viewBox="0 0 100 100" fill="none" xmlns="http://www.w3.org/2000/svg">
<circle cx="50" cy="50" r="49.5" fill="white" stroke="#C867E2"/>
<path d="M69.8333 63.3335V68.6668H35.8333V63.3335C35.8333 63.3335 35.8333 52.6668 52.8333 52.6668C69.8333 52.6668 69.8333 63.3335 69.8333 63.3335ZM61.3333 39.3335C61.3333 37.7512 60.8348 36.2045 59.9008 34.8889C58.9668 33.5733 57.6393 32.548 56.0861 31.9425C54.533 31.337 52.8239 31.1785 51.1751 31.4872C49.5262 31.7959 48.0117 32.5578 46.8229 33.6766C45.6342 34.7955 44.8246 36.2209 44.4967 37.7728C44.1687 39.3246 44.337 40.9332 44.9804 42.395C45.6237 43.8568 46.7132 45.1062 48.111 45.9853C49.5088 46.8643 51.1522 47.3335 52.8333 47.3335C55.0877 47.3335 57.2497 46.4906 58.8437 44.9904C60.4378 43.4901 61.3333 41.4552 61.3333 39.3335ZM70.4 52.8268C71.9488 54.1716 73.1974 55.7933 74.0731 57.5973C74.9487 59.4012 75.4338 61.3512 75.5 63.3335V68.6668H84V63.3335C84 63.3335 84 54.1335 70.4 52.8268ZM67 31.3335C66.1439 31.334 65.2932 31.4599 64.4783 31.7068C66.136 33.9441 67.0247 36.606 67.0247 39.3335C67.0247 42.061 66.136 44.7229 64.4783 46.9602C65.2932 47.2071 66.1439 47.333 67 47.3335C69.2543 47.3335 71.4163 46.4906 73.0104 44.9904C74.6045 43.4901 75.5 41.4552 75.5 39.3335C75.5 37.2118 74.6045 35.1769 73.0104 33.6766C71.4163 32.1764 69.2543 31.3335 67 31.3335ZM38.6667 44.6668H30.1667V36.6668H24.5V44.6668H16V50.0002H24.5V58.0002H30.1667V50.0002H38.6667V44.6668Z" fill="#C867E2"/>
</svg>
