<svg width="20" height="20" viewBox="0 0 20 20" fill="none" xmlns="http://www.w3.org/2000/svg">
<g clip-path="url(#clip0_550_1637)">
<path d="M10 4.1665C9.22645 4.1665 8.48459 4.47379 7.93761 5.02078C7.39062 5.56776 7.08333 6.30962 7.08333 7.08317C7.08333 7.85672 7.39062 8.59858 7.93761 9.14557C8.48459 9.69255 9.22645 9.99984 10 9.99984C10.7735 9.99984 11.5154 9.69255 12.0624 9.14557C12.6094 8.59858 12.9167 7.85672 12.9167 7.08317C12.9167 6.30962 12.6094 5.56776 12.0624 5.02078C11.5154 4.47379 10.7735 4.1665 10 4.1665ZM10 5.83317C10.3315 5.83317 10.6495 5.96487 10.8839 6.19929C11.1183 6.43371 11.25 6.75165 11.25 7.08317C11.25 7.41469 11.1183 7.73263 10.8839 7.96705C10.6495 8.20147 10.3315 8.33317 10 8.33317C9.66848 8.33317 9.35054 8.20147 9.11612 7.96705C8.8817 7.73263 8.75 7.41469 8.75 7.08317C8.75 6.75165 8.8817 6.43371 9.11612 6.19929C9.35054 5.96487 9.66848 5.83317 10 5.83317ZM4.58333 6.6665C4.0308 6.6665 3.5009 6.886 3.11019 7.2767C2.71949 7.6674 2.5 8.1973 2.5 8.74984C2.5 9.53317 2.94167 10.2082 3.575 10.5665C3.875 10.7332 4.21667 10.8332 4.58333 10.8332C4.95 10.8332 5.29167 10.7332 5.59167 10.5665C5.9 10.3915 6.15833 10.1415 6.35 9.8415C5.7429 9.05031 5.41473 8.08044 5.41667 7.08317V6.84984C5.16667 6.73317 4.88333 6.6665 4.58333 6.6665ZM15.4167 6.6665C15.1167 6.6665 14.8333 6.73317 14.5833 6.84984V7.08317C14.5833 8.08317 14.2583 9.04984 13.65 9.8415C13.75 9.99984 13.8583 10.1248 13.9833 10.2498C14.3676 10.6224 14.8814 10.8315 15.4167 10.8332C15.7833 10.8332 16.125 10.7332 16.425 10.5665C17.0583 10.2082 17.5 9.53317 17.5 8.74984C17.5 8.1973 17.2805 7.6674 16.8898 7.2767C16.4991 6.886 15.9692 6.6665 15.4167 6.6665ZM10 11.6665C8.05 11.6665 4.16667 12.6415 4.16667 14.5832V15.8332H15.8333V14.5832C15.8333 12.6415 11.95 11.6665 10 11.6665ZM3.925 12.1248C2.31667 12.3165 0 13.1332 0 14.5832V15.8332H2.5V14.2248C2.5 13.3832 3.075 12.6832 3.925 12.1248ZM16.075 12.1248C16.925 12.6832 17.5 13.3832 17.5 14.2248V15.8332H20V14.5832C20 13.1332 17.6833 12.3165 16.075 12.1248ZM10 13.3332C11.275 13.3332 12.7 13.7498 13.525 14.1665H6.475C7.3 13.7498 8.725 13.3332 10 13.3332Z" fill="#888888"/>
</g>
<defs>
<clipPath id="clip0_550_1637">
<rect width="20" height="20" fill="white"/>
</clipPath>
</defs>
</svg>
