<svg width="20" height="20" viewBox="0 0 20 20" fill="none" xmlns="http://www.w3.org/2000/svg">
<path fill-rule="evenodd" clip-rule="evenodd" d="M4.25 1.75C1.5 1.75 1.5 1.958 1.5 4.5V4.525C1.5 5.632 1.5 6.432 1.771 6.77C2.036 7.098 2.823 7.25 4.25 7.25C5.677 7.25 6.464 7.097 6.729 6.769C7 6.432 7 5.632 7 4.524C7 1.958 7 1.75 4.25 1.75ZM4.25 8.75C2.564 8.75 1.299 8.573 0.604 7.71C0 6.961 0 5.939 0 4.525L0.75 4.5H0C0 1.63 0.181 0.25 4.25 0.25C8.319 0.25 8.5 1.63 8.5 4.5C8.5 5.938 8.5 6.961 7.896 7.71C7.201 8.573 5.936 8.75 4.25 8.75Z" fill="#888888"/>
<path fill-rule="evenodd" clip-rule="evenodd" d="M15.25 1.75C12.5 1.75 12.5 1.958 12.5 4.5V4.525C12.5 5.632 12.5 6.432 12.771 6.77C13.036 7.098 13.823 7.25 15.25 7.25C16.677 7.25 17.464 7.097 17.729 6.769C18 6.432 18 5.632 18 4.524C18 1.958 18 1.75 15.25 1.75ZM15.25 8.75C13.564 8.75 12.299 8.573 11.604 7.71C11 6.961 11 5.939 11 4.525L11.75 4.5H11C11 1.63 11.181 0.25 15.25 0.25C19.319 0.25 19.5 1.63 19.5 4.5C19.5 5.938 19.5 6.961 18.896 7.71C18.201 8.573 16.936 8.75 15.25 8.75Z" fill="#888888"/>
<path fill-rule="evenodd" clip-rule="evenodd" d="M4.25 12.75C1.5 12.75 1.5 12.958 1.5 15.5V15.525C1.5 16.632 1.5 17.432 1.771 17.77C2.036 18.098 2.823 18.25 4.25 18.25C5.677 18.25 6.464 18.097 6.729 17.769C7 17.432 7 16.632 7 15.524C7 12.958 7 12.75 4.25 12.75ZM4.25 19.75C2.564 19.75 1.299 19.573 0.604 18.71C0 17.961 0 16.939 0 15.525L0.75 15.5H0C0 12.63 0.181 11.25 4.25 11.25C8.319 11.25 8.5 12.63 8.5 15.5C8.5 16.938 8.5 17.961 7.896 18.71C7.201 19.573 5.936 19.75 4.25 19.75Z" fill="#888888"/>
<path fill-rule="evenodd" clip-rule="evenodd" d="M15.25 12.75C12.5 12.75 12.5 12.958 12.5 15.5V15.525C12.5 16.632 12.5 17.432 12.771 17.77C13.036 18.098 13.823 18.25 15.25 18.25C16.677 18.25 17.464 18.097 17.729 17.769C18 17.432 18 16.632 18 15.524C18 12.958 18 12.75 15.25 12.75ZM15.25 19.75C13.564 19.75 12.299 19.573 11.604 18.71C11 17.961 11 16.939 11 15.525L11.75 15.5H11C11 12.63 11.181 11.25 15.25 11.25C19.319 11.25 19.5 12.63 19.5 15.5C19.5 16.938 19.5 17.961 18.896 18.71C18.201 19.573 16.936 19.75 15.25 19.75Z" fill="#888888"/>
</svg>
