<svg width="32" height="32" viewBox="0 0 32 32" fill="none" xmlns="http://www.w3.org/2000/svg">
<path d="M16.16 17.04C16.0667 17.0266 15.9467 17.0266 15.84 17.04C13.4934 16.96 11.6267 15.04 11.6267 12.68C11.6267 10.2666 13.5734 8.30664 16 8.30664C18.4134 8.30664 20.3734 10.2666 20.3734 12.68C20.36 15.04 18.5067 16.96 16.16 17.04Z" stroke="#292D32" stroke-width="1.5" stroke-linecap="round" stroke-linejoin="round"/>
<path d="M24.9866 25.8401C22.6133 28.0134 19.4666 29.3334 16 29.3334C12.5333 29.3334 9.38664 28.0134 7.01331 25.8401C7.14664 24.5867 7.94664 23.3601 9.37331 22.4001C13.0266 19.9734 19 19.9734 22.6266 22.4001C24.0533 23.3601 24.8533 24.5867 24.9866 25.8401Z" stroke="#292D32" stroke-width="1.5" stroke-linecap="round" stroke-linejoin="round"/>
<path d="M16 29.3332C23.3638 29.3332 29.3333 23.3636 29.3333 15.9998C29.3333 8.63604 23.3638 2.6665 16 2.6665C8.63616 2.6665 2.66663 8.63604 2.66663 15.9998C2.66663 23.3636 8.63616 29.3332 16 29.3332Z" stroke="#292D32" stroke-width="1.5" stroke-linecap="round" stroke-linejoin="round"/>
</svg>
