<svg width="20" height="14" viewBox="0 0 20 14" fill="none" xmlns="http://www.w3.org/2000/svg">
<path d="M10.4167 6.9585C10.8194 6.51405 11.1286 6.00711 11.3442 5.43766C11.5592 4.86822 11.6667 4.27794 11.6667 3.66683C11.6667 3.05572 11.5592 2.46544 11.3442 1.896C11.1286 1.32655 10.8194 0.819607 10.4167 0.375163C11.25 0.486274 11.9444 0.854329 12.5 1.47933C13.0556 2.10433 13.3333 2.8335 13.3333 3.66683C13.3333 4.50016 13.0556 5.22933 12.5 5.85433C11.9444 6.47933 11.25 6.84738 10.4167 6.9585ZM15 13.6668V11.1668C15 10.6668 14.8889 10.1913 14.6667 9.74016C14.4444 9.2885 14.1528 8.88905 13.7917 8.54183C14.5 8.79183 15.1564 9.11461 15.7608 9.51016C16.3647 9.90627 16.6667 10.4585 16.6667 11.1668V13.6668H15ZM16.6667 7.8335V6.16683H15V4.50016H16.6667V2.8335H18.3333V4.50016H20V6.16683H18.3333V7.8335H16.6667ZM6.66667 7.00016C5.75 7.00016 4.96528 6.67377 4.3125 6.021C3.65972 5.36822 3.33333 4.5835 3.33333 3.66683C3.33333 2.75016 3.65972 1.96544 4.3125 1.31266C4.96528 0.659885 5.75 0.333496 6.66667 0.333496C7.58333 0.333496 8.36806 0.659885 9.02083 1.31266C9.67361 1.96544 10 2.75016 10 3.66683C10 4.5835 9.67361 5.36822 9.02083 6.021C8.36806 6.67377 7.58333 7.00016 6.66667 7.00016ZM0 13.6668V11.3335C0 10.8613 0.121667 10.4271 0.365 10.031C0.607778 9.63544 0.930556 9.3335 1.33333 9.12516C2.19444 8.69461 3.06944 8.37155 3.95833 8.156C4.84722 7.941 5.75 7.8335 6.66667 7.8335C7.58333 7.8335 8.48611 7.941 9.375 8.156C10.2639 8.37155 11.1389 8.69461 12 9.12516C12.4028 9.3335 12.7256 9.63544 12.9683 10.031C13.2117 10.4271 13.3333 10.8613 13.3333 11.3335V13.6668H0ZM6.66667 5.3335C7.125 5.3335 7.5175 5.17016 7.84417 4.8435C8.17028 4.51738 8.33333 4.12516 8.33333 3.66683C8.33333 3.2085 8.17028 2.81627 7.84417 2.49016C7.5175 2.1635 7.125 2.00016 6.66667 2.00016C6.20833 2.00016 5.81611 2.1635 5.49 2.49016C5.16333 2.81627 5 3.2085 5 3.66683C5 4.12516 5.16333 4.51738 5.49 4.8435C5.81611 5.17016 6.20833 5.3335 6.66667 5.3335ZM1.66667 12.0002H11.6667V11.3335C11.6667 11.1807 11.6286 11.0418 11.5525 10.9168C11.4758 10.7918 11.375 10.6946 11.25 10.6252C10.5 10.2502 9.74306 9.96877 8.97917 9.781C8.21528 9.59377 7.44444 9.50016 6.66667 9.50016C5.88889 9.50016 5.11806 9.59377 4.35417 9.781C3.59028 9.96877 2.83333 10.2502 2.08333 10.6252C1.95833 10.6946 1.85778 10.7918 1.78167 10.9168C1.705 11.0418 1.66667 11.1807 1.66667 11.3335V12.0002Z" fill="#888888"/>
</svg>
