<svg width="100" height="100" viewBox="0 0 100 100" fill="none" xmlns="http://www.w3.org/2000/svg">
<circle cx="50" cy="50" r="49.5" fill="white" stroke="#C867E2"/>
<path d="M50.6443 23.1251C40.5173 23.1001 31.6056 28.0313 26.5122 35.4813C26.2865 35.8126 26.5388 36.2501 26.9572 36.2501H31.6255C31.9443 36.2501 32.2431 36.1188 32.4423 35.8876C32.9072 35.3563 33.4052 34.8438 33.9298 34.3563C36.0947 32.3251 38.6115 30.7251 41.4138 29.6126C44.3091 28.4626 47.3904 27.8751 50.5712 27.8751C53.7521 27.8751 56.8333 28.4563 59.7287 29.6126C62.531 30.7251 65.0478 32.3251 67.2126 34.3563C69.3775 36.3876 71.0708 38.7563 72.2595 41.3876C73.488 44.1126 74.1056 47.0063 74.1056 50.0001C74.1056 52.9938 73.4814 55.8876 72.2595 58.6126C71.0775 61.2438 69.3775 63.6126 67.2126 65.6438C65.0478 67.6751 62.531 69.2751 59.7287 70.3876C56.8311 71.5395 53.7167 72.1304 50.5712 72.1251C47.3904 72.1251 44.3091 71.5376 41.4138 70.3876C38.617 69.2762 36.0755 67.6653 33.9298 65.6438C33.4052 65.1501 32.9138 64.6376 32.4423 64.1126C32.2431 63.8813 31.9376 63.7501 31.6255 63.7501H26.9572C26.5388 63.7501 26.2798 64.1876 26.5122 64.5188C31.599 71.9501 40.4708 76.8751 50.5712 76.8751C66.2564 76.8751 78.9931 64.9938 79.1525 50.2751C79.3119 35.3188 66.5552 23.1626 50.6443 23.1251ZM42.2319 57.0001V52.2501H21.3804C21.0882 52.2501 20.8491 52.0251 20.8491 51.7501V48.2501C20.8491 47.9751 21.0882 47.7501 21.3804 47.7501H42.2319V43.0001C42.2319 42.5813 42.7499 42.3438 43.0952 42.6063L52.5183 49.6063C52.5818 49.6531 52.6331 49.7129 52.6684 49.7811C52.7037 49.8493 52.7221 49.9242 52.7221 50.0001C52.7221 50.076 52.7037 50.1509 52.6684 50.2191C52.6331 50.2873 52.5818 50.3471 52.5183 50.3938L43.0952 57.3938C42.7499 57.6501 42.2319 57.4188 42.2319 57.0001Z" fill="#C867E2"/>
</svg>
